v 0.196157 -0.150000 -0.039018
v 0.184776 -0.150000 -0.076537
v 0.166294 -0.150000 -0.111114
v 0.141421 -0.150000 -0.141421
v 0.111114 -0.150000 -0.166294
v 0.076537 -0.150000 -0.184776
v 0.039018 -0.150000 -0.196157
v 0.000000 -0.150000 -0.200000
v -0.039018 -0.150000 -0.196157
v -0.076537 -0.150000 -0.184776
v -0.111114 -0.150000 -0.166294
v -0.141421 -0.150000 -0.141421
v -0.166294 -0.150000 -0.111114
v -0.184776 -0.150000 -0.076537
v -0.196157 -0.150000 -0.039018
v -0.200000 -0.150000 -0.000000
v -0.196157 -0.150000 0.039018
v -0.184776 -0.150000 0.076537
v -0.166294 -0.150000 0.111114
v -0.141421 -0.150000 0.141421
v -0.111114 -0.150000 0.166294
v -0.076537 -0.150000 0.184776
v -0.039018 -0.150000 0.196157
v -0.000000 -0.150000 0.200000
v 0.039018 -0.150000 0.196157
v 0.076537 -0.150000 0.184776
v 0.111114 -0.150000 0.166294
v 0.141421 -0.150000 0.141421
v 0.166294 -0.150000 0.111114
v 0.184776 -0.150000 0.076537
v 0.196157 -0.150000 0.039018
v 0.200000 -0.150000 0.000000
v 0.000000 -0.150000 0.000000
v 0.000000 0.150000 0.000000
vt 0.990392 -0.597545
vt 0.961939 -0.691341
vt 0.915735 -0.777785
vt 0.853553 -0.853553
vt 0.777785 -0.915734
vt 0.691342 -0.961939
vt 0.597545 -0.990392
vt 0.500000 -1.000000
vt 0.402455 -0.990392
vt 0.308658 -0.961939
vt 0.222215 -0.915735
vt 0.146447 -0.853553
vt 0.084265 -0.777785
vt 0.038060 -0.691342
vt 0.009608 -0.597545
vt 0.000000 -0.500000
vt 0.009608 -0.402455
vt 0.038060 -0.308658
vt 0.084265 -0.222215
vt 0.146447 -0.146447
vt 0.222215 -0.084265
vt 0.308658 -0.038060
vt 0.402455 -0.009608
vt 0.500000 -0.000000
vt 0.597545 -0.009607
vt 0.691342 -0.038060
vt 0.777785 -0.084265
vt 0.853553 -0.146447
vt 0.915735 -0.222215
vt 0.961940 -0.308658
vt 0.990393 -0.402455
vt 1.000000 -0.500000
vt 0.000000 0.000000
vt 0.031250 0.000000
vt 0.062500 0.000000
vt 0.093750 0.000000
vt 0.125000 0.000000
vt 0.156250 0.000000
vt 0.187500 0.000000
vt 0.218750 0.000000
vt 0.250000 0.000000
vt 0.281250 0.000000
vt 0.312500 0.000000
vt 0.343750 0.000000
vt 0.375000 0.000000
vt 0.406250 0.000000
vt 0.437500 0.000000
vt 0.468750 0.000000
vt 0.500000 0.000000
vt 0.531250 0.000000
vt 0.562500 0.000000
vt 0.593750 0.000000
vt 0.625000 0.000000
vt 0.656250 0.000000
vt 0.687500 0.000000
vt 0.718750 0.000000
vt 0.750000 0.000000
vt 0.781250 0.000000
vt 0.812500 0.000000
vt 0.843750 0.000000
vt 0.875000 0.000000
vt 0.906250 0.000000
vt 0.937500 0.000000
vt 0.968750 0.000000
vt 1.000000 0.000000
vt 0.500000 -0.500000
vt 0.500000 1.000000
vn 0.000000 -1.000000 -0.000000
vn 0.000000 -1.000000 0.000000
vn 0.000000 -1.000000 -0.000000
vn 0.000000 -1.000000 -0.000000
vn 0.000000 -1.000000 -0.000000
vn 0.000000 -1.000000 -0.000000
vn 0.000000 -1.000000 -0.000000
vn 0.000000 -1.000000 -0.000000
vn 0.000000 -1.000000 0.000000
vn 0.000000 -1.000000 0.000000
vn 0.000000 -1.000000 0.000000
vn 0.000000 -1.000000 0.000000
vn 0.000000 -1.000000 -0.000000
vn 0.000000 -1.000000 -0.000000
vn 0.000000 -1.000000 -0.000000
vn 0.000000 -1.000000 0.000000
vn 0.000000 -1.000000 0.000000
vn 0.000000 -1.000000 -0.000000
vn 0.000000 -1.000000 -0.000000
vn 0.000000 -1.000000 -0.000000
vn 0.000000 -1.000000 0.000000
vn 0.000000 -1.000000 0.000000
vn 0.000000 -1.000000 0.000000
vn 0.000000 -1.000000 0.000000
vn 0.000000 -1.000000 -0.000000
vn 0.000000 -1.000000 -0.000000
vn 0.000000 -1.000000 0.000000
vn 0.000000 -1.000000 -0.000000
vn 0.000000 -1.000000 -0.000000
vn 0.000000 -1.000000 0.000000
vn 0.000000 -1.000000 0.000000
vn 0.000000 -1.000000 -0.000000
vn 0.000000 -1.000000 -0.000000
vn 0.816063 0.554700 -0.162327
vn 0.768715 0.554700 -0.318412
vn 0.000000 1.000000 -0.000000
vn 0.691825 0.554700 -0.462262
vn 0.588349 0.554700 -0.588348
vn 0.462263 0.554700 -0.691825
vn 0.318412 0.554700 -0.768714
vn 0.162325 0.554700 -0.816063
vn 0.000000 0.554700 -0.832051
vn -0.162325 0.554700 -0.816063
vn -0.318411 0.554700 -0.768715
vn -0.462262 0.554700 -0.691825
vn -0.588348 0.554700 -0.588349
vn -0.691824 0.554700 -0.462263
vn -0.768714 0.554700 -0.318412
vn -0.816063 0.554700 -0.162325
vn -0.832050 0.554700 -0.000000
vn -0.816063 0.554700 0.162325
vn -0.768714 0.554700 0.318412
vn -0.691825 0.554700 0.462262
vn -0.588349 0.554700 0.588348
vn -0.462263 0.554700 0.691824
vn -0.318412 0.554700 0.768714
vn -0.162325 0.554700 0.816063
vn -0.000000 0.554700 0.832050
vn 0.162325 0.554700 0.816063
vn 0.318412 0.554700 0.768714
vn 0.462262 0.554700 0.691825
vn 0.588348 0.554700 0.588349
vn 0.691824 0.554700 0.462262
vn 0.768714 0.554700 0.318412
vn 0.816063 0.554700 0.162325
vn 0.832050 0.554700 -0.000002
f 2/2/1 1/1/2 33/66/3
f 3/3/4 2/2/1 33/66/3
f 4/4/5 3/3/4 33/66/3
f 5/5/6 4/4/5 33/66/3
f 6/6/7 5/5/6 33/66/3
f 7/7/8 6/6/7 33/66/3
f 8/8/9 7/7/8 33/66/3
f 9/9/10 8/8/9 33/66/3
f 10/10/11 9/9/10 33/66/3
f 11/11/12 10/10/11 33/66/3
f 12/12/13 11/11/12 33/66/3
f 13/13/14 12/12/13 33/66/3
f 14/14/15 13/13/14 33/66/3
f 15/15/16 14/14/15 33/66/3
f 16/16/17 15/15/16 33/66/3
f 17/17/18 16/16/17 33/66/3
f 18/18/19 17/17/18 33/66/3
f 19/19/20 18/18/19 33/66/3
f 20/20/21 19/19/20 33/66/3
f 21/21/22 20/20/21 33/66/3
f 22/22/23 21/21/22 33/66/3
f 23/23/24 22/22/23 33/66/3
f 24/24/25 23/23/24 33/66/3
f 25/25/26 24/24/25 33/66/3
f 26/26/27 25/25/26 33/66/3
f 27/27/28 26/26/27 33/66/3
f 28/28/29 27/27/28 33/66/3
f 29/29/30 28/28/29 33/66/3
f 30/30/31 29/29/30 33/66/3
f 31/31/32 30/30/31 33/66/3
f 32/32/33 31/31/32 33/66/3
f 1/1/2 32/32/33 33/66/3
f 1/33/34 2/34/35 34/67/36
f 2/34/35 3/35/37 34/67/36
f 3/35/37 4/36/38 34/67/36
f 4/36/38 5/37/39 34/67/36
f 5/37/39 6/38/40 34/67/36
f 6/38/40 7/39/41 34/67/36
f 7/39/41 8/40/42 34/67/36
f 8/40/42 9/41/43 34/67/36
f 9/41/43 10/42/44 34/67/36
f 10/42/44 11/43/45 34/67/36
f 11/43/45 12/44/46 34/67/36
f 12/44/46 13/45/47 34/67/36
f 13/45/47 14/46/48 34/67/36
f 14/46/48 15/47/49 34/67/36
f 15/47/49 16/48/50 34/67/36
f 16/48/50 17/49/51 34/67/36
f 17/49/51 18/50/52 34/67/36
f 18/50/52 19/51/53 34/67/36
f 19/51/53 20/52/54 34/67/36
f 20/52/54 21/53/55 34/67/36
f 21/53/55 22/54/56 34/67/36
f 22/54/56 23/55/57 34/67/36
f 23/55/57 24/56/58 34/67/36
f 24/56/58 25/57/59 34/67/36
f 25/57/59 26/58/60 34/67/36
f 26/58/60 27/59/61 34/67/36
f 27/59/61 28/60/62 34/67/36
f 28/60/62 29/61/63 34/67/36
f 29/61/63 30/62/64 34/67/36
f 30/62/64 31/63/65 34/67/36
f 31/63/65 32/64/66 34/67/36
f 32/64/66 1/65/34 34/67/36
